<?xml version="1.0" encoding="iso-8859-1"?>
<!-- Generator: Adobe Illustrator 16.0.0, SVG Export Plug-In . SVG Version: 6.00 Build 0)  -->
<!DOCTYPE svg PUBLIC "-//W3C//DTD SVG 1.1//EN" "http://www.w3.org/Graphics/SVG/1.1/DTD/svg11.dtd">
<svg version="1.1" id="Layer_1" xmlns="http://www.w3.org/2000/svg" xmlns:xlink="http://www.w3.org/1999/xlink" x="0px" y="0px"
	 width="202px" height="46px" viewBox="0 0 202 46" style="enable-background:new 0 0 202 46;" xml:space="preserve">
<path style="fill:#3D3D3D;" d="M32.477,37h7.4V25.047h4.57v-5.414h-4.57v-5.396h5.133V8.541H32.477V37z"/>
<path style="fill:#3D3D3D;" d="M62.676,22.656c0-2.262-0.261-4.017-0.782-5.265s-1.43-2.25-2.725-3.006s-2.938-1.134-4.931-1.134
	c-1.629,0-3.07,0.313-4.324,0.94s-2.156,1.529-2.707,2.707s-0.826,2.786-0.826,4.825v6.803c0,1.734,0.123,3.056,0.369,3.964
	s0.688,1.74,1.327,2.496s1.532,1.351,2.681,1.784s2.473,0.65,3.973,0.65c1.547,0,2.833-0.22,3.858-0.659s1.872-1.099,2.54-1.978
	s1.093-1.705,1.274-2.479s0.272-1.881,0.272-3.322v-1.723h-6.732v3.076c0,1.16-0.091,1.942-0.272,2.347s-0.542,0.606-1.081,0.606
	c-0.434,0-0.727-0.152-0.879-0.457s-0.229-0.984-0.229-2.039V25.75h9.193V22.656z M53.482,21.953v-1.705
	c0-1.312,0.059-2.118,0.176-2.417s0.422-0.448,0.914-0.448c0.398,0,0.662,0.176,0.791,0.527s0.193,1.131,0.193,2.338v1.705H53.482z"
	/>
<path style="fill:#3D3D3D;" d="M81.08,22.656c0-2.262-0.261-4.017-0.782-5.265s-1.43-2.25-2.725-3.006s-2.938-1.134-4.931-1.134
	c-1.629,0-3.07,0.313-4.324,0.94s-2.156,1.529-2.707,2.707s-0.826,2.786-0.826,4.825v6.803c0,1.734,0.123,3.056,0.369,3.964
	s0.688,1.74,1.327,2.496s1.532,1.351,2.681,1.784s2.473,0.65,3.973,0.65c1.547,0,2.833-0.22,3.858-0.659s1.872-1.099,2.54-1.978
	s1.093-1.705,1.274-2.479s0.272-1.881,0.272-3.322v-1.723h-6.732v3.076c0,1.16-0.091,1.942-0.272,2.347s-0.542,0.606-1.081,0.606
	c-0.434,0-0.727-0.152-0.879-0.457s-0.229-0.984-0.229-2.039V25.75h9.193V22.656z M71.887,21.953v-1.705
	c0-1.312,0.059-2.118,0.176-2.417s0.422-0.448,0.914-0.448c0.398,0,0.662,0.176,0.791,0.527s0.193,1.131,0.193,2.338v1.705H71.887z"
	/>
<path style="fill:#3D3D3D;" d="M92.453,8.541v6.614c-0.598-0.634-1.263-1.11-1.995-1.427c-0.732-0.317-1.538-0.476-2.417-0.476
	c-1.137,0-2.115,0.284-2.936,0.853s-1.345,1.228-1.573,1.978s-0.343,2.021-0.343,3.814v10.916c0,1.723,0.114,2.965,0.343,3.727
	s0.747,1.433,1.556,2.013s1.764,0.87,2.865,0.87c0.82,0,1.605-0.176,2.355-0.528s1.465-0.881,2.145-1.585V37h7.102V8.541H92.453z
	 M92.453,30.338c0,1.301-0.076,2.118-0.229,2.452s-0.457,0.501-0.914,0.501c-0.398,0-0.668-0.149-0.809-0.448
	s-0.211-0.923-0.211-1.872V19.545c0-0.914,0.073-1.503,0.22-1.767s0.431-0.396,0.853-0.396c0.434,0,0.724,0.146,0.87,0.439
	s0.22,0.867,0.22,1.723V30.338z"/>
<path style="fill:#3D3D3D;" d="M118.188,22.656c0-2.262-0.261-4.017-0.782-5.265s-1.43-2.25-2.725-3.006s-2.938-1.134-4.931-1.134
	c-1.629,0-3.07,0.313-4.324,0.94s-2.156,1.529-2.707,2.707s-0.826,2.786-0.826,4.825v6.803c0,1.734,0.123,3.056,0.369,3.964
	s0.688,1.74,1.327,2.496s1.532,1.351,2.681,1.784s2.473,0.65,3.973,0.65c1.547,0,2.833-0.22,3.858-0.659s1.872-1.099,2.54-1.978
	s1.093-1.705,1.274-2.479s0.272-1.881,0.272-3.322v-1.723h-6.732v3.076c0,1.16-0.091,1.942-0.272,2.347s-0.542,0.606-1.081,0.606
	c-0.434,0-0.727-0.152-0.879-0.457s-0.229-0.984-0.229-2.039V25.75h9.193V22.656z M108.994,21.953v-1.705
	c0-1.312,0.059-2.118,0.176-2.417s0.422-0.448,0.914-0.448c0.398,0,0.662,0.176,0.791,0.527s0.193,1.131,0.193,2.338v1.705H108.994z
	"/>
<path style="fill:#3D3D3D;" d="M120.508,13.674V37h7.102v-9.211c0-2.262,0.07-3.706,0.211-4.333s0.516-1.116,1.125-1.468
	s1.564-0.527,2.865-0.527v-8.209c-1.957,0.129-3.451,1.292-4.482,3.489l0.281-3.067H120.508z"/>
<path style="fill:#3D3D3D;" d="M139.738,20.266c0-1.301,0.059-2.106,0.176-2.417s0.416-0.466,0.896-0.466
	c0.422,0,0.724,0.185,0.905,0.554s0.272,1.163,0.272,2.382c0,0.973-0.082,1.617-0.246,1.934s-1.412,0.932-3.744,1.846
	c-2.18,0.844-3.545,1.582-4.096,2.215s-0.826,1.822-0.826,3.568v1.916c0,2.355,0.519,3.882,1.556,4.579s2.177,1.046,3.419,1.046
	c0.949,0,1.767-0.208,2.452-0.625c0.686-0.417,1.245-1.042,1.679-1.875V37h6.908V25.293c0-3.855-0.123-6.401-0.369-7.638
	s-0.979-2.279-2.197-3.129s-3.029-1.274-5.432-1.274c-2.004,0-3.633,0.375-4.887,1.125s-2.089,1.614-2.505,2.593
	s-0.624,2.37-0.624,4.175v1.564h6.662V20.266z M141.988,30.707c0,1.172-0.067,1.896-0.202,2.171s-0.425,0.413-0.87,0.413
	c-0.469,0-0.782-0.176-0.94-0.527s-0.237-1.131-0.237-2.338c0-1.055,0.091-1.863,0.272-2.426s0.841-1.26,1.978-2.092V30.707z"/>
<path style="fill:#3D3D3D;" d="M151.902,10.562v3.674h-1.529v3.691h1.529v11.848c0,2.32,0.064,3.794,0.193,4.421
	s0.457,1.184,0.984,1.67s1.137,0.797,1.828,0.932S156.754,37,158.371,37h2.865v-3.762c-1.16,0-1.819-0.088-1.978-0.264
	s-0.237-1.031-0.237-2.566v-12.48h1.916v-3.691h-1.916v-3.674H151.902z"/>
<path style="fill:#3D3D3D;" d="M178.226,18.174c-0.229-0.809-0.653-1.594-1.274-2.355s-1.503-1.38-2.646-1.854
	s-2.511-0.712-4.104-0.712c-1.898,0-3.457,0.369-4.676,1.107s-2.062,1.717-2.531,2.936s-0.703,2.912-0.703,5.08v5.977
	c0,1.98,0.129,3.466,0.387,4.456s0.688,1.834,1.292,2.531s1.45,1.219,2.54,1.564s2.42,0.519,3.99,0.519
	c1.406,0,2.651-0.202,3.735-0.606s1.972-1.031,2.663-1.881s1.143-1.764,1.354-2.742s0.316-2.517,0.316-4.614v-5.713
	C178.568,20.213,178.454,18.982,178.226,18.174z M171.467,30.865c0,1.008-0.067,1.664-0.202,1.969s-0.413,0.457-0.835,0.457
	c-0.41,0-0.686-0.167-0.826-0.501s-0.211-1.052-0.211-2.153V20.107c0-1.195,0.07-1.948,0.211-2.259s0.422-0.466,0.844-0.466
	s0.697,0.155,0.826,0.466s0.193,1.063,0.193,2.259V30.865z"/>
<path style="fill:#3D3D3D;" d="M180.906,13.674V37h7.102v-9.211c0-2.262,0.07-3.706,0.211-4.333s0.516-1.116,1.125-1.468
	s1.564-0.527,2.865-0.527v-8.209c-1.957,0.129-3.451,1.292-4.482,3.489l0.281-3.067H180.906z"/>
<path style="fill:#3D3D3D;" d="M7.817,9.781v1.837H7.053v1.846h0.765v5.924c0,1.16,0.032,1.897,0.097,2.21s0.229,0.592,0.492,0.835
	s0.568,0.398,0.914,0.466S10.243,23,11.052,23h1.433v-1.881c-0.58,0-0.91-0.044-0.989-0.132s-0.119-0.516-0.119-1.283v-6.24h0.958
	v-1.846h-0.958V9.781H7.817z"/>
<path style="fill:#3D3D3D;" d="M13.117,8.771V23h3.551v-8.323c0-0.592,0.038-0.987,0.114-1.187s0.223-0.299,0.439-0.299
	c0.234,0,0.385,0.097,0.453,0.29s0.101,0.63,0.101,1.31V23h3.551v-8.042c0-1.096-0.048-1.85-0.145-2.263s-0.363-0.778-0.8-1.094
	s-0.965-0.475-1.586-0.475c-0.404,0-0.784,0.071-1.138,0.211c-0.354,0.141-0.684,0.353-0.989,0.634V8.771H13.117z"/>
<path style="fill:#3D3D3D;" d="M30.59,15.828c0-1.131-0.13-2.008-0.391-2.632s-0.715-1.125-1.362-1.503s-1.469-0.567-2.465-0.567
	c-0.814,0-1.535,0.157-2.162,0.47s-1.078,0.765-1.354,1.354s-0.413,1.393-0.413,2.413v3.401c0,0.867,0.062,1.528,0.185,1.982
	s0.344,0.87,0.664,1.248s0.766,0.675,1.34,0.892s1.236,0.325,1.986,0.325c0.773,0,1.417-0.11,1.929-0.33s0.936-0.549,1.27-0.989
	s0.546-0.853,0.637-1.239s0.136-0.94,0.136-1.661v-0.861h-3.366v1.538c0,0.58-0.045,0.971-0.136,1.173s-0.271,0.303-0.541,0.303
	c-0.217,0-0.363-0.076-0.439-0.229s-0.114-0.492-0.114-1.02v-2.522h4.597V15.828z M25.993,15.477v-0.853
	c0-0.656,0.029-1.059,0.088-1.208s0.211-0.224,0.457-0.224c0.199,0,0.331,0.088,0.396,0.264s0.097,0.565,0.097,1.169v0.853H25.993z"
	/>
</svg>
